<svg width="30" height="25" viewBox="0 0 30 25" fill="none" xmlns="http://www.w3.org/2000/svg">
<path d="M29 23.0003H27V14.0003L27.2925 14.2928C27.4805 14.4805 27.7353 14.5857 28.0009 14.5855C28.2665 14.5853 28.5211 14.4795 28.7087 14.2916C28.8964 14.1036 29.0017 13.8488 29.0014 13.5832C29.0012 13.3176 28.8955 13.063 28.7075 12.8753L16.4137 0.585323C16.0387 0.210534 15.5302 0 15 0C14.4698 0 13.9613 0.210534 13.5863 0.585323L1.2925 12.8753C1.10503 13.063 0.999769 13.3174 0.999886 13.5826C1 13.8479 1.10548 14.1022 1.29312 14.2897C1.48077 14.4772 1.7352 14.5824 2.00044 14.5823C2.26569 14.5822 2.52003 14.4767 2.7075 14.2891L3 14.0003V23.0003H1C0.734784 23.0003 0.48043 23.1057 0.292893 23.2932C0.105357 23.4808 0 23.7351 0 24.0003C0 24.2655 0.105357 24.5199 0.292893 24.7074C0.48043 24.895 0.734784 25.0003 1 25.0003H29C29.2652 25.0003 29.5196 24.895 29.7071 24.7074C29.8946 24.5199 30 24.2655 30 24.0003C30 23.7351 29.8946 23.4808 29.7071 23.2932C29.5196 23.1057 29.2652 23.0003 29 23.0003ZM5 12.0003L15 2.00032L25 12.0003V23.0003H19V16.0003C19 15.7351 18.8946 15.4808 18.7071 15.2932C18.5196 15.1057 18.2652 15.0003 18 15.0003H12C11.7348 15.0003 11.4804 15.1057 11.2929 15.2932C11.1054 15.4808 11 15.7351 11 16.0003V23.0003H5V12.0003ZM17 23.0003H13V17.0003H17V23.0003Z" fill="#3779F9"/>
</svg>
