<svg width="26" height="24" viewBox="0 0 26 24" fill="none" xmlns="http://www.w3.org/2000/svg">
<path d="M23 0H3C2.20435 0 1.44129 0.316071 0.87868 0.87868C0.316071 1.44129 0 2.20435 0 3V17C0 17.7956 0.316071 18.5587 0.87868 19.1213C1.44129 19.6839 2.20435 20 3 20H23C23.7956 20 24.5587 19.6839 25.1213 19.1213C25.6839 18.5587 26 17.7956 26 17V3C26 2.20435 25.6839 1.44129 25.1213 0.87868C24.5587 0.316071 23.7956 0 23 0ZM24 17C24 17.2652 23.8946 17.5196 23.7071 17.7071C23.5196 17.8946 23.2652 18 23 18H3C2.73478 18 2.48043 17.8946 2.29289 17.7071C2.10536 17.5196 2 17.2652 2 17V3C2 2.73478 2.10536 2.48043 2.29289 2.29289C2.48043 2.10536 2.73478 2 3 2H23C23.2652 2 23.5196 2.10536 23.7071 2.29289C23.8946 2.48043 24 2.73478 24 3V17ZM18 23C18 23.2652 17.8946 23.5196 17.7071 23.7071C17.5196 23.8946 17.2652 24 17 24H9C8.73478 24 8.48043 23.8946 8.29289 23.7071C8.10536 23.5196 8 23.2652 8 23C8 22.7348 8.10536 22.4804 8.29289 22.2929C8.48043 22.1054 8.73478 22 9 22H17C17.2652 22 17.5196 22.1054 17.7071 22.2929C17.8946 22.4804 18 22.7348 18 23ZM17.555 9.1675L11.555 5.1675C11.4044 5.067 11.2293 5.00928 11.0484 5.00052C10.8675 4.99176 10.6877 5.03227 10.528 5.11774C10.3684 5.20321 10.2349 5.33043 10.1419 5.48581C10.0489 5.6412 9.99988 5.81891 10 6V14C9.99988 14.1811 10.0489 14.3588 10.1419 14.5142C10.2349 14.6696 10.3684 14.7968 10.528 14.8823C10.6877 14.9677 10.8675 15.0082 11.0484 14.9995C11.2293 14.9907 11.4044 14.933 11.555 14.8325L17.555 10.8325C17.6922 10.7412 17.8047 10.6175 17.8825 10.4722C17.9603 10.327 18.001 10.1648 18.001 10C18.001 9.83523 17.9603 9.67302 17.8825 9.52778C17.8047 9.38255 17.6922 9.25878 17.555 9.1675ZM12 12.1313V7.875L15.1975 10L12 12.1313Z" fill="#3779F9"/>
</svg>
